<svg aria-hidden="true" style="position: absolute; width: 0; height: 0; overflow: hidden;" version="1.1" xmlns="http://www.w3.org/2000/svg" xmlns:xlink="http://www.w3.org/1999/xlink">
<defs>

<symbol id="icon-punctuality" viewBox="0 0 32 32">
<path d="M13.875 0.15c-7.25 1.125-12.675 7.025-13.075 14.25-0.25 4.6 1.225 8.4 4.425 11.6 2.45 2.425 6.2 4.475 6.7 3.675 0.1-0.175 1.050-2.975 2.075-6.225 1.8-5.65 1.925-5.95 2.75-6.5 0.725-0.5 0.9-0.75 0.95-1.625 0.050-0.825-0.025-1.1-0.5-1.425-0.3-0.225-0.9-0.4-1.3-0.4-0.6 0-1.225-0.475-3.425-2.625-1.9-1.875-2.775-2.6-3.075-2.475-0.225 0.075-0.4 0.275-0.4 0.45 0 0.15 1.175 1.475 2.625 2.9 1.975 1.975 2.625 2.75 2.525 3.1-0.075 0.275 0.050 0.85 0.25 1.3 0.375 0.775 0.325 0.975-1.425 6.5-1 3.15-1.825 5.775-1.875 5.8-0.025 0.050-0.85-0.325-1.825-0.825-3.2-1.675-5.975-5.225-6.9-8.8-0.5-1.875-0.475-5.225 0.025-7.175 2.225-8.675 12.1-12.925 20.2-8.725 3.275 1.7 6.050 5.25 7.025 8.975 1.1 4.275-0.2 9.475-3.25 12.8-1.225 1.35-3.9 3.3-4.5 3.3-0.175 0-0.375-0.45-0.475-1-0.075-0.575-0.325-1.075-0.525-1.15-0.5-0.2-4.675 3.575-4.575 4.1 0.075 0.425 5.1 2.125 5.675 1.925 0.25-0.1 0.3-0.425 0.175-1.325l-0.15-1.175 1.35-0.7c1.875-0.975 4.125-3.075 5.375-5.025 6.425-9.85-0.3-23.025-11.975-23.525-1.175-0.050-2.45-0.025-2.875 0.025zM16.65 15.025c0.075 0.15-0.025 0.45-0.25 0.675-0.375 0.375-0.425 0.375-0.8 0-0.475-0.475-0.275-0.95 0.4-0.95 0.25 0 0.55 0.125 0.65 0.275zM20.65 29.3l0.175 1.175-1.3-0.4c-0.7-0.225-1.275-0.5-1.275-0.6 0-0.375 1.825-1.75 2.025-1.55 0.125 0.125 0.3 0.75 0.375 1.375z"></path>
<path d="M15.5 3.875c0 0.95 0.075 1.125 0.5 1.125s0.5-0.175 0.5-1.125c0-0.95-0.075-1.125-0.5-1.125s-0.5 0.175-0.5 1.125z"></path>
<path d="M3.375 14.975c-0.3 0.5 0.15 0.775 1.275 0.775 0.95 0 1.125-0.075 1.050-0.45-0.050-0.3-0.375-0.45-1.125-0.5-0.55-0.050-1.1 0.050-1.2 0.175z"></path>
<path d="M26.425 14.9c-0.1 0.1-0.175 0.35-0.175 0.525 0 0.275 0.3 0.325 1.2 0.275 0.85-0.050 1.175-0.175 1.175-0.45 0-0.25-0.3-0.4-1-0.45-0.575-0.050-1.1 0-1.2 0.1z"></path>
</symbol>
<symbol id="icon-strategy" viewBox="0 0 32 32">
<path d="M7.375 1l-0.975 1 0.575 0.6c0.55 0.575 0.55 0.625 0.15 1.4-0.7 1.325-1.375 4.5-1.375 6.35 0 3.375 1.050 6.375 3.2 9.225l1.3 1.7v6.475h-3.55c-3.1 0-3.675 0.075-4.375 0.5-0.9 0.55-1.5 2.050-1.225 3.1l0.15 0.65h25.25v-1.275c0-2.6-0.7-2.975-5.5-2.975h-3.5v-2.7l2.125 0.125c2.375 0.15 4.525-0.175 6.675-1.050 1.4-0.575 1.425-0.575 1.85-0.1 0.625 0.675 0.925 0.6 1.975-0.55l0.925-1.050-4.375-4.4-4.4-4.4 0.35-1.75c0.65-3.075 0.55-2.875 1.5-2.875 2.175 0 2.825-2.875 0.875-3.875-1.325-0.7-3 0.275-3 1.75 0 0.9-0.1 0.925-3.5 1.25l-1.625 0.175-4.125-4.15c-2.275-2.275-4.175-4.15-4.25-4.15s-0.575 0.45-1.125 1zM23.3 16.075c5.425 5.55 6.225 6.475 5.925 6.825-0.275 0.325-1.7-1-10.875-10.175-10.075-10.050-10.55-10.6-10.175-11.050 0.4-0.425 0.625-0.25 4.65 3.75 2.3 2.3 7.025 7.1 10.475 10.65zM26.75 22.8c0 0.325-3.15 1.225-4.775 1.375-0.9 0.075-2.3 0.050-3.075-0.025l-1.4-0.175v-1.625c0-0.95-0.15-1.925-0.375-2.35-0.525-1.050-1.85-1.75-3.225-1.75-1.25 0-1.95 0.25-2.825 1.050-0.675 0.625-0.8 0.525-1.925-1.175-2.6-3.9-3.075-9.025-1.25-13.3l0.4-0.95 9.225 9.375c5.050 5.15 9.225 9.45 9.225 9.55zM24.875 7c0 0.725-0.1 0.9-0.575 0.95-0.725 0.1-1.3-0.35-1.3-1.075 0-0.75 0.225-0.9 1.125-0.825 0.675 0.075 0.75 0.15 0.75 0.95zM20.425 9.925l-0.925 0.925-0.75-0.725c-0.4-0.4-0.7-0.775-0.625-0.825 0.125-0.15 2.975-0.475 3.125-0.375 0.050 0.050-0.325 0.5-0.825 1zM21.725 11.225c-0.15 0.7-0.35 1.275-0.45 1.275s-0.4-0.225-0.65-0.5c-0.45-0.5-0.45-0.525 0.375-1.375 0.475-0.475 0.875-0.825 0.925-0.775s-0.050 0.65-0.2 1.375zM15.775 19.975c0.7 0.725 0.725 0.8 0.725 3.25v2.525h-5.25v-2.6c0-2.6 0-2.6 0.775-3.25 1.125-0.95 2.75-0.925 3.75 0.075zM16.5 27.25c0 0.475-0.175 0.5-2.625 0.5s-2.625-0.025-2.625-0.5c0-0.475 0.175-0.5 2.625-0.5s2.625 0.025 2.625 0.5zM24.95 29.15c0.35 0.25 0.55 0.625 0.55 1.125v0.725h-23.55l0.15-0.7c0.1-0.375 0.4-0.875 0.7-1.125 0.475-0.4 1.375-0.425 11.050-0.425 9.125 0 10.625 0.050 11.1 0.4z"></path>
<path d="M13.050 20.675c-0.75 0.675-0.875 1.425-0.35 2.075 0.9 1.1 2.625 0.525 2.625-0.875 0-1.225-1.4-1.95-2.275-1.2zM14.45 21.825c0.1 0.5-0.625 0.85-1 0.475s-0.025-1.1 0.475-1c0.25 0.050 0.475 0.275 0.525 0.525z"></path>
</symbol>
<symbol id="icon-diligence" viewBox="0 0 32 32">
<path d="M29.25 4.375c-0.375 0.4-0.525 0.775-0.425 1.15 0.125 0.425-0.1 0.775-0.9 1.5-0.575 0.525-1.125 0.95-1.225 0.975-0.125 0-0.2-0.45-0.2-1 0-0.725-0.125-1.050-0.475-1.25-0.325-0.15-4.45-0.25-11.725-0.25-10.55 0-11.25 0.025-11.625 0.45s-0.425 1.4-0.425 8.75v8.3h-0.625c-1.125 0-1.625 0.8-1.625 2.625 0 2.85-1.2 2.625 14.375 2.625 15.55 0 14.375 0.2 14.375-2.575 0-1.775-0.3-2.35-1.375-2.625l-0.75-0.2-0.075-6.475-0.050-6.475 1.55-1.575c1.225-1.25 1.65-1.525 2.1-1.425 0.675 0.175 1.85-0.85 1.85-1.6 0-0.6-1.025-1.55-1.65-1.55-0.275 0-0.775 0.275-1.1 0.625zM30.725 5.075c0.2 0.25 0.175 0.425-0.025 0.625-0.4 0.4-0.625 0.375-0.8-0.1-0.3-0.75 0.3-1.125 0.825-0.525zM25.5 7.95c0 1.15-0.1 1.575-0.475 1.9-0.475 0.45-0.5 0.425-0.575-0.875l-0.075-1.35h-20l-0.075 6.975c-0.050 5.425 0.025 7.025 0.25 7.2 0.375 0.225 18.95 0.275 19.55 0.050 0.35-0.125 0.4-0.825 0.4-5.225 0-4.725 0.025-5.075 0.5-5.5 0.5-0.45 0.5-0.425 0.5 5.7v6.175h-22.25v-16.5h22.25v1.45zM23.5 9.825c0 1.3-0.025 1.325-1.85 3.15-1.275 1.275-1.95 1.775-2.175 1.625-0.2-0.1-1.175-0.825-2.2-1.575l-1.825-1.375-1.050 1.1c-0.55 0.625-1.55 1.725-2.2 2.45l-1.175 1.325-0.75-0.4c-0.425-0.2-0.775-0.575-0.775-0.8 0-0.625-0.75-1.325-1.45-1.325-0.85 0-1.55 0.675-1.55 1.5 0 1 0.725 1.525 2.025 1.475 0.6-0.025 1.475 0.1 1.925 0.3l0.85 0.35 4.325-4.625 1.5 1.15c2.8 2.15 2.35 2.125 4.5 0.225l1.875-1.675v8.050h-18.25v-12.25h18.25v1.325zM8.5 15.5c0 0.325-0.175 0.5-0.5 0.5s-0.5-0.175-0.5-0.5c0-0.325 0.175-0.5 0.5-0.5s0.5 0.175 0.5 0.5zM10.75 24.6c0 1.35 1 1.75 4.275 1.625 2.45-0.1 2.975-0.4 2.975-1.65v-0.575l4.825 0.050 4.8 0.075v3h-26.5l-0.075-1.225c-0.125-2-0.375-1.9 4.95-1.9h4.75v0.6zM16.95 24.55c-0.075 0.525-0.225 0.575-2.075 0.65-2.475 0.1-3.125-0.050-3.125-0.7 0-0.475 0.175-0.5 2.65-0.5 2.6 0 2.625 0 2.55 0.55z"></path>
<path d="M15 17.375c0 2.2 0.025 2.375 0.5 2.375s0.5-0.175 0.5-2.375c0-2.2-0.025-2.375-0.5-2.375s-0.5 0.175-0.5 2.375z"></path>
<path d="M19.25 18.5c0 1.075 0.075 1.25 0.5 1.25s0.5-0.175 0.5-1.25c0-1.075-0.075-1.25-0.5-1.25s-0.5 0.175-0.5 1.25z"></path>
<path d="M7.5 19c0 0.575 0.1 0.75 0.5 0.75s0.5-0.175 0.5-0.75c0-0.575-0.1-0.75-0.5-0.75s-0.5 0.175-0.5 0.75z"></path>
<path d="M10.75 19.25c0 0.325 0.175 0.5 0.5 0.5s0.5-0.175 0.5-0.5c0-0.325-0.175-0.5-0.5-0.5s-0.5 0.175-0.5 0.5z"></path>
</symbol>
<symbol id="icon-technologies" viewBox="0 0 32 32">
<path d="M27.525 2.975c-0.45 0.85-0.65 0.975-1.65 1.125-1.325 0.2-1.4 0.525-0.4 1.5 0.675 0.65 0.725 0.825 0.6 1.925-0.125 1.050-0.075 1.225 0.3 1.225 0.225 0 0.75-0.2 1.15-0.425 0.675-0.4 0.775-0.4 1.6 0 1.475 0.7 1.675 0.6 1.475-0.725-0.15-1.050-0.1-1.2 0.65-1.975 0.45-0.45 0.725-0.95 0.65-1.1-0.1-0.125-0.65-0.325-1.25-0.4-0.975-0.15-1.15-0.275-1.525-1.15-0.25-0.525-0.6-0.975-0.775-0.975-0.2 0-0.575 0.425-0.825 0.975zM29.65 4.85c0.6 0.15 0.625 0.2 0.25 0.625-0.225 0.25-0.4 0.8-0.4 1.225 0 0.75-0.025 0.775-0.625 0.5-0.475-0.2-0.775-0.2-1.275 0.025-0.65 0.275-0.65 0.275-0.525-0.4 0.1-0.5-0.025-0.85-0.375-1.25l-0.5-0.525 0.75-0.175c0.45-0.1 0.85-0.4 1.050-0.825l0.3-0.675 0.35 0.65c0.175 0.375 0.625 0.75 1 0.825z"></path>
<path d="M12.4 2.875c-1.35 0.475-2.65 1.575-3.525 3-0.675 1.1-0.75 1.4-0.75 3.35 0 1.525 0.125 2.4 0.425 2.95l0.4 0.825h-1.35c-1.15 0-1.8 0.225-4.35 1.5-2.425 1.225-3.025 1.625-3.15 2.15-0.225 0.875 0.25 1.8 1.075 2.125 0.625 0.225 0.975 0.125 2.9-0.875 1.2-0.625 2.5-1.15 2.875-1.15 0.6 0 0.275 0.4-2.9 3.575-3.075 3.075-3.55 3.675-3.55 4.35 0 1.7 1.85 2.175 3.15 0.8 0.4-0.425 1.15-1.1 1.675-1.525 0.925-0.725 0.95-0.75 1.45-0.3 0.475 0.45 0.475 0.475-1.225 2.2-1.95 2-2.15 2.4-1.75 3.275 0.325 0.7 1.125 1 2.050 0.775 0.525-0.125 3.625-3.25 9.050-9.125l1.25-1.325 1.8 0.275 1.825 0.275 1.55-1.025c3.4-2.275 4.35-3.8 3.175-4.975-0.825-0.825-1.675-0.625-3.65 0.875-1.65 1.25-1.9 1.35-2.45 1.1l-0.625-0.3 0.95-0.7c4.3-3.1 3.925-9.25-0.7-11.675-1.3-0.65-1.85-0.8-3.1-0.8-0.85 0.025-1.975 0.175-2.525 0.375zM15.5 3.675c0 0.075-0.3 1.15-0.675 2.375-0.4 1.4-0.775 2.2-1 2.2-0.575 0-1.575 1.175-1.575 1.875 0 0.825 1.025 1.875 1.825 1.875 0.325 0 0.875-0.2 1.2-0.45 0.6-0.45 0.625-0.45 2.4 0.375 2.025 0.925 2.1 1.175 0.625 2.15-2.125 1.375-4.4 1.5-6.425 0.3-1.925-1.125-2.875-2.8-2.875-5.050 0-2.35 1.275-4.375 3.375-5.35 0.95-0.45 3.125-0.65 3.125-0.3zM17.7 4.225c2.375 1.225 3.625 4.275 2.775 6.75-0.15 0.425-0.375 0.775-0.525 0.775-0.125 0-1.050-0.375-2.075-0.85-1.475-0.675-1.9-1.025-2.25-1.725-0.4-0.85-0.4-0.95 0.275-3.15 0.375-1.25 0.725-2.275 0.775-2.275s0.5 0.225 1.025 0.475zM14.725 9.6c0.4 0.475-0.1 1.475-0.65 1.35-0.65-0.125-0.975-0.85-0.6-1.3 0.425-0.5 0.875-0.5 1.25-0.050zM10.5 14.725c1.375 0.975 2.375 1.325 4.225 1.45 2.075 0.175 4.025 0.85 4.025 1.425 0 0.2 0.075 0.55 0.15 0.775 0.15 0.375-0.025 0.4-1.55 0.25l-1.725-0.175-4.7 5.25-2.225-2.025c-1.2-1.1-2.2-2.075-2.2-2.15s0.7-0.825 1.525-1.675c0.85-0.875 1.45-1.675 1.375-1.825-0.1-0.15-0.725-0.275-1.425-0.275h-1.225v-1.8l1.575 0.175c0.85 0.075 1.825 0.35 2.175 0.6zM5.75 15.2c0 0.55-0.175 0.8-0.85 1.125-0.775 0.35-0.875 0.35-1 0.025-0.275-0.725-0.15-1 0.675-1.425 1.1-0.55 1.175-0.525 1.175 0.275zM23.95 15.15c0.050 0.275-0.175 0.725-0.45 0.975-0.525 0.475-0.55 0.475-1-0.125-0.425-0.575-0.45-0.65-0.050-1.075 0.525-0.575 1.4-0.45 1.5 0.225zM2.85 16.4c0.275 0.7 0.15 1.025-0.425 1.275-0.675 0.3-1.425 0-1.425-0.55 0-0.2 0.3-0.525 0.7-0.725 0.875-0.475 0.975-0.475 1.15 0zM21.55 16.425c0.675 0.6 0.55 0.925-0.525 1.525-0.85 0.475-1 0.5-1.125 0.15-0.275-0.7-0.15-1.125 0.425-1.625 0.675-0.575 0.65-0.575 1.225-0.050zM8 22.375l2.1 2.125-1.35 1.375c-1.275 1.3-1.375 1.35-1.8 0.95-0.45-0.4-0.425-0.45 0.6-1.5l1.050-1.075-1.125-1.15-1.125-1.125-1.075 0.775c-1.025 0.75-1.1 0.775-1.55 0.35-0.475-0.425-0.475-0.475 0.7-1.65 0.65-0.65 1.25-1.2 1.325-1.2s1.075 0.95 2.25 2.125zM2.95 24.675c-0.625 0.675-1.45 0.775-1.45 0.15 0-0.225 0.25-0.675 0.55-1 0.5-0.55 0.575-0.55 1-0.15 0.45 0.4 0.45 0.425-0.1 1zM6.25 27.625c0.25 0.325 0.25 0.475-0.125 0.875-0.55 0.6-1.375 0.65-1.375 0.075 0-0.425 0.675-1.325 1-1.325 0.1 0 0.325 0.175 0.5 0.375z"></path>
<path d="M17 5.725c0 0.275 0.225 0.575 0.525 0.65 0.275 0.1 0.675 0.55 0.9 1.025 0.25 0.5 0.6 0.85 0.875 0.85 0.55 0 0.55-0.050 0.1-1.1-0.6-1.425-2.4-2.5-2.4-1.425z"></path>
<path d="M18.75 9.75c0 0.325 0.175 0.5 0.5 0.5s0.5-0.175 0.5-0.5c0-0.325-0.175-0.5-0.5-0.5s-0.5 0.175-0.5 0.5z"></path>
<path d="M9.675 17.45c-0.65 0.65-1.175 1.3-1.175 1.45 0 0.325 2.325 2.6 2.65 2.6 0.125 0 0.8-0.575 1.475-1.25l1.225-1.25-1.35-1.375c-0.75-0.75-1.425-1.375-1.5-1.375s-0.675 0.55-1.325 1.2zM11.75 19.6l-0.75 0.775-0.675-0.7-0.675-0.675 1.45-1.5 1.4 1.35-0.75 0.75z"></path>
<path d="M5 6.625c0 0.2 0.175 0.375 0.375 0.375s0.375-0.175 0.375-0.375c0-0.2-0.175-0.375-0.375-0.375s-0.375 0.175-0.375 0.375z"></path>
<path d="M3.75 7.75c0 0.325 0.175 0.5 0.5 0.5s0.5-0.175 0.5-0.5c0-0.325-0.175-0.5-0.5-0.5s-0.5 0.175-0.5 0.5z"></path>
<path d="M6 7.75c0 0.275 0.175 0.5 0.375 0.5s0.375-0.225 0.375-0.5c0-0.275-0.175-0.5-0.375-0.5s-0.375 0.225-0.375 0.5z"></path>
<path d="M5 8.75c0 0.275 0.175 0.5 0.375 0.5s0.375-0.225 0.375-0.5c0-0.275-0.175-0.5-0.375-0.5s-0.375 0.225-0.375 0.5z"></path>
<path d="M25.25 21c0 0.275 0.175 0.5 0.375 0.5s0.375-0.225 0.375-0.5c0-0.275-0.175-0.5-0.375-0.5s-0.375 0.225-0.375 0.5z"></path>
<path d="M24 22.125c0 0.2 0.225 0.375 0.5 0.375s0.5-0.175 0.5-0.375c0-0.2-0.225-0.375-0.5-0.375s-0.5 0.175-0.5 0.375z"></path>
<path d="M26.25 22.125c0 0.2 0.175 0.375 0.375 0.375s0.375-0.175 0.375-0.375c0-0.2-0.175-0.375-0.375-0.375s-0.375 0.175-0.375 0.375z"></path>
<path d="M25.25 23.25c0 0.275 0.175 0.5 0.375 0.5s0.375-0.225 0.375-0.5c0-0.275-0.175-0.5-0.375-0.5s-0.375 0.225-0.375 0.5z"></path>
<path d="M15 24.75c0 0.325 0.175 0.5 0.5 0.5s0.5-0.175 0.5-0.5c0-0.325-0.175-0.5-0.5-0.5s-0.5 0.175-0.5 0.5z"></path>
<path d="M14 25.875c0 0.2 0.175 0.375 0.375 0.375s0.375-0.175 0.375-0.375c0-0.2-0.175-0.375-0.375-0.375s-0.375 0.175-0.375 0.375z"></path>
<path d="M16 25.875c0 0.2 0.225 0.375 0.5 0.375s0.5-0.175 0.5-0.375c0-0.2-0.225-0.375-0.5-0.375s-0.5 0.175-0.5 0.375z"></path>
<path d="M15 27c0 0.325 0.175 0.5 0.5 0.5s0.5-0.175 0.5-0.5c0-0.325-0.175-0.5-0.5-0.5s-0.5 0.175-0.5 0.5z"></path>
<path d="M21.5 27c0 0.275 0.175 0.5 0.375 0.5s0.375-0.225 0.375-0.5c0-0.275-0.175-0.5-0.375-0.5s-0.375 0.225-0.375 0.5z"></path>
<path d="M20.25 28c0 0.325 0.175 0.5 0.5 0.5s0.5-0.175 0.5-0.5c0-0.325-0.175-0.5-0.5-0.5s-0.5 0.175-0.5 0.5z"></path>
<path d="M22.5 28c0 0.325 0.175 0.5 0.5 0.5s0.5-0.175 0.5-0.5c0-0.325-0.175-0.5-0.5-0.5s-0.5 0.175-0.5 0.5z"></path>
<path d="M21.5 29c0 0.275 0.175 0.5 0.375 0.5s0.375-0.225 0.375-0.5c0-0.275-0.175-0.5-0.375-0.5s-0.375 0.225-0.375 0.5z"></path>
</symbol>

<symbol id="icon-facebook" viewBox="0 0 32 32">
<path d="M19 6h5v-6h-5c-3.86 0-7 3.14-7 7v3h-4v6h4v16h6v-16h5l1-6h-6v-3c0-0.542 0.458-1 1-1z"></path>
</symbol>
<symbol id="icon-instagram" viewBox="0 0 32 32">
<path d="M16 2.881c4.275 0 4.781 0.019 6.462 0.094 1.563 0.069 2.406 0.331 2.969 0.55 0.744 0.288 1.281 0.638 1.837 1.194 0.563 0.563 0.906 1.094 1.2 1.838 0.219 0.563 0.481 1.412 0.55 2.969 0.075 1.688 0.094 2.194 0.094 6.463s-0.019 4.781-0.094 6.463c-0.069 1.563-0.331 2.406-0.55 2.969-0.288 0.744-0.637 1.281-1.194 1.837-0.563 0.563-1.094 0.906-1.837 1.2-0.563 0.219-1.413 0.481-2.969 0.55-1.688 0.075-2.194 0.094-6.463 0.094s-4.781-0.019-6.463-0.094c-1.563-0.069-2.406-0.331-2.969-0.55-0.744-0.288-1.281-0.637-1.838-1.194-0.563-0.563-0.906-1.094-1.2-1.837-0.219-0.563-0.481-1.413-0.55-2.969-0.075-1.688-0.094-2.194-0.094-6.463s0.019-4.781 0.094-6.463c0.069-1.563 0.331-2.406 0.55-2.969 0.288-0.744 0.638-1.281 1.194-1.838 0.563-0.563 1.094-0.906 1.838-1.2 0.563-0.219 1.412-0.481 2.969-0.55 1.681-0.075 2.188-0.094 6.463-0.094zM16 0c-4.344 0-4.887 0.019-6.594 0.094-1.7 0.075-2.869 0.35-3.881 0.744-1.056 0.412-1.95 0.956-2.837 1.85-0.894 0.888-1.438 1.781-1.85 2.831-0.394 1.019-0.669 2.181-0.744 3.881-0.075 1.713-0.094 2.256-0.094 6.6s0.019 4.887 0.094 6.594c0.075 1.7 0.35 2.869 0.744 3.881 0.413 1.056 0.956 1.95 1.85 2.837 0.887 0.887 1.781 1.438 2.831 1.844 1.019 0.394 2.181 0.669 3.881 0.744 1.706 0.075 2.25 0.094 6.594 0.094s4.888-0.019 6.594-0.094c1.7-0.075 2.869-0.35 3.881-0.744 1.050-0.406 1.944-0.956 2.831-1.844s1.438-1.781 1.844-2.831c0.394-1.019 0.669-2.181 0.744-3.881 0.075-1.706 0.094-2.25 0.094-6.594s-0.019-4.887-0.094-6.594c-0.075-1.7-0.35-2.869-0.744-3.881-0.394-1.063-0.938-1.956-1.831-2.844-0.887-0.887-1.781-1.438-2.831-1.844-1.019-0.394-2.181-0.669-3.881-0.744-1.712-0.081-2.256-0.1-6.6-0.1v0z"></path>
<path d="M16 7.781c-4.537 0-8.219 3.681-8.219 8.219s3.681 8.219 8.219 8.219 8.219-3.681 8.219-8.219c0-4.537-3.681-8.219-8.219-8.219zM16 21.331c-2.944 0-5.331-2.387-5.331-5.331s2.387-5.331 5.331-5.331c2.944 0 5.331 2.387 5.331 5.331s-2.387 5.331-5.331 5.331z"></path>
<path d="M26.462 7.456c0 1.060-0.859 1.919-1.919 1.919s-1.919-0.859-1.919-1.919c0-1.060 0.859-1.919 1.919-1.919s1.919 0.859 1.919 1.919z"></path>
</symbol>
<symbol id="icon-twitter" viewBox="0 0 32 32">
<path d="M32 7.075c-1.175 0.525-2.444 0.875-3.769 1.031 1.356-0.813 2.394-2.1 2.887-3.631-1.269 0.75-2.675 1.3-4.169 1.594-1.2-1.275-2.906-2.069-4.794-2.069-3.625 0-6.563 2.938-6.563 6.563 0 0.512 0.056 1.012 0.169 1.494-5.456-0.275-10.294-2.888-13.531-6.862-0.563 0.969-0.887 2.1-0.887 3.3 0 2.275 1.156 4.287 2.919 5.463-1.075-0.031-2.087-0.331-2.975-0.819 0 0.025 0 0.056 0 0.081 0 3.181 2.263 5.838 5.269 6.437-0.55 0.15-1.131 0.231-1.731 0.231-0.425 0-0.831-0.044-1.237-0.119 0.838 2.606 3.263 4.506 6.131 4.563-2.25 1.762-5.075 2.813-8.156 2.813-0.531 0-1.050-0.031-1.569-0.094 2.913 1.869 6.362 2.95 10.069 2.95 12.075 0 18.681-10.006 18.681-18.681 0-0.287-0.006-0.569-0.019-0.85 1.281-0.919 2.394-2.075 3.275-3.394z"></path>
</symbol>
<symbol id="icon-linkedin" viewBox="0 0 32 32">
<path d="M29 0h-26c-1.65 0-3 1.35-3 3v26c0 1.65 1.35 3 3 3h26c1.65 0 3-1.35 3-3v-26c0-1.65-1.35-3-3-3zM12 26h-4v-14h4v14zM10 10c-1.106 0-2-0.894-2-2s0.894-2 2-2c1.106 0 2 0.894 2 2s-0.894 2-2 2zM26 26h-4v-8c0-1.106-0.894-2-2-2s-2 0.894-2 2v8h-4v-14h4v2.481c0.825-1.131 2.087-2.481 3.5-2.481 2.488 0 4.5 2.238 4.5 5v9z"></path>
</symbol>

<symbol id="icon-close" viewBox="0 0 8 8">
<path d="M8 0.805714L7.19429 0L4 3.19429L0.805714 0L0 0.805714L3.19429 4L0 7.19429L0.805714 8L4 4.80571L7.19429 8L8 7.19429L4.80571 4L8 0.805714Z" fill="currentColor"/>
</symbol>
<symbol id="icon-person" viewBox="0 0 24 24">
<path d="M9 12C10.6575 12 12 10.6575 12 9C12 7.3425 10.6575 6 9 6C7.3425 6 6 7.3425 6 9C6 10.6575 7.3425 12 9 12ZM9 13.5C6.9975 13.5 3 14.505 3 16.5V17.25C3 17.6625 3.3375 18 3.75 18H14.25C14.6625 18 15 17.6625 15 17.25V16.5C15 14.505 11.0025 13.5 9 13.5Z" fill="currentColor"/>
</symbol>
<symbol id="icon-phone" viewBox="0 0 18 24">
<path d="M14.7263 13.8651L12.8881 13.6552C12.4467 13.6046 12.0125 13.7566 11.7013 14.0677L10.3697 15.3993C8.3217 14.3572 6.64276 12.6855 5.60067 10.6303L6.93947 9.29144C7.25065 8.98025 7.40263 8.54605 7.35197 8.1046L7.1421 6.28092C7.05526 5.55 6.44013 5 5.70198 5H4.45002C3.63226 5 2.952 5.68026 3.00266 6.49802C3.38621 12.6783 8.32894 17.6138 14.5019 17.9973C15.3197 18.048 15.9999 17.3677 15.9999 16.55V15.298C16.0072 14.5671 15.4572 13.952 14.7263 13.8651Z" fill="currentColor"/>
</symbol>
<symbol id="icon-email" viewBox="0 0 18 24">
<path d="M15 6H3C2.175 6 1.5075 6.675 1.5075 7.5L1.5 16.5C1.5 17.325 2.175 18 3 18H15C15.825 18 16.5 17.325 16.5 16.5V7.5C16.5 6.675 15.825 6 15 6ZM14.7 9.1875L9.3975 12.5025C9.1575 12.6525 8.8425 12.6525 8.6025 12.5025L3.3 9.1875C3.1125 9.0675 3 8.865 3 8.6475C3 8.145 3.5475 7.845 3.975 8.1075L9 11.25L14.025 8.1075C14.4525 7.845 15 8.145 15 8.6475C15 8.865 14.8875 9.0675 14.7 9.1875Z" fill="currentColor"/>
</symbol>
<symbol id="icon-check" viewBox="0 0 32 32">
<path d="M28.1 7.2l-15.7 15.7-7.1-7.1-2.3 2.3 9.4 9.4 18-18z" fill="currentColor"/>
</symbol>
<symbol id="icon-send" viewBox="0 0 32 32">
<svg width="24" height="24" viewBox="0 0 24 24" fill="none" xmlns="http://www.w3.org/2000/svg">
<path d="M24 2L0 13.25L7.66994 15.6172L19.5 6.375L10.5017 16.4913L10.509 16.4936L10.5 16.4913V22L14.8013 17.8183L20.2501 19.5L24 2Z" fill="white"/>
</svg>
</symbol>

</defs>
</svg>
